# xmcd
#
# Track frame offsets: 
#        150
#        21452
#        40176
#        63382
#        85083
#        108395
#        129146
#        142680
#        172255
#        191611
#        210244
#
# Disc length: 3092 seconds
#
# Revision: 0
# Processed by: cddbd v1.5.2PL0 Copyright (c) Steve Scherf et al.
# Submitted via: ExactAudioCopy v1.3
#
DISCID=8e0c120b
DTITLE=Marcus Malone - One More Time
DYEAR=1999
DGENRE=Chicago Blues, Blues Rock
TTITLE0=One More Time
TTITLE1=Dirty Shame
TTITLE2=Redline Blues Effect
TTITLE3=Testify
TTITLE4=Drowning Man
TTITLE5=Pride and Joy
TTITLE6=Tell Me Why
TTITLE7=Ball and Chain
TTITLE8=Heart For Rent
TTITLE9=Yesterday Man
TTITLE10=Redline Cause
EXTD=
EXTT0=
EXTT1=
EXTT2=
EXTT3=
EXTT4=
EXTT5=
EXTT6=
EXTT7=
EXTT8=
EXTT9=
EXTT10=
PLAYORDER=
